solid ConvexPolyhedron
facet normal 0.0 0.0 -4.0
	outer loop
		vertex -1.0 -1.0 -1.0
		vertex -1.0 1.0 -1.0
		vertex 1.0 1.0 -1.0
	endloop
endfacet
facet normal 0.0 0.0 -4.0
	outer loop
		vertex -1.0 -1.0 -1.0
		vertex 1.0 1.0 -1.0
		vertex 1.0 -1.0 -1.0
	endloop
endfacet
facet normal 0.0 -4.0 0.0
	outer loop
		vertex -1.0 -1.0 -1.0
		vertex 1.0 -1.0 -1.0
		vertex 1.0 -1.0 1.0
	endloop
endfacet
facet normal 0.0 -4.0 0.0
	outer loop
		vertex -1.0 -1.0 -1.0
		vertex 1.0 -1.0 1.0
		vertex -1.0 -1.0 1.0
	endloop
endfacet
facet normal 4.0 0.0 0.0
	outer loop
		vertex 1.0 -1.0 -1.0
		vertex 1.0 1.0 -1.0
		vertex 1.0 1.0 1.0
	endloop
endfacet
facet normal 4.0 0.0 -0.0
	outer loop
		vertex 1.0 -1.0 -1.0
		vertex 1.0 1.0 1.0
		vertex 1.0 -1.0 1.0
	endloop
endfacet
facet normal -4.0 0.0 0.0
	outer loop
		vertex -1.0 -1.0 -1.0
		vertex -1.0 -1.0 1.0
		vertex -1.0 1.0 1.0
	endloop
endfacet
facet normal -4.0 0.0 0.0
	outer loop
		vertex -1.0 -1.0 -1.0
		vertex -1.0 1.0 1.0
		vertex -1.0 1.0 -1.0
	endloop
endfacet
facet normal 0.0 4.0 0.0
	outer loop
		vertex -1.0 1.0 -1.0
		vertex -1.0 1.0 1.0
		vertex 1.0 1.0 1.0
	endloop
endfacet
facet normal -0.0 4.0 0.0
	outer loop
		vertex -1.0 1.0 -1.0
		vertex 1.0 1.0 1.0
		vertex 1.0 1.0 -1.0
	endloop
endfacet
facet normal 0.0 0.0 4.0
	outer loop
		vertex -1.0 -1.0 1.0
		vertex 1.0 -1.0 1.0
		vertex 1.0 1.0 1.0
	endloop
endfacet
facet normal 0.0 -0.0 4.0
	outer loop
		vertex -1.0 -1.0 1.0
		vertex 1.0 1.0 1.0
		vertex -1.0 1.0 1.0
	endloop
endfacet
endsolid ConvexPolyhedron
