ply
format ascii 1.0
comment PLY file written by Coxeter version 0.10.0
comment ConvexPolyhedron
element vertex 11
property float x
property float y
property float z
element face 11
property list uchar uint vertex_indices
end_header
0.0 0.0 0.7367037622952479
0.672706592612713 0.0 -0.4698658049108846
0.672706592612713 0.0 0.3209482236044623
0.2078777693453928 -0.6397819884590299 -0.4698658049108846
0.2078777693453928 -0.6397819884590299 0.3209482236044623
0.2078777693453928 0.6397819884590299 -0.4698658049108846
0.2078777693453928 0.6397819884590299 0.3209482236044623
-0.5442310656517493 -0.39540701425767344 -0.4698658049108846
-0.5442310656517493 -0.39540701425767344 0.3209482236044623
-0.5442310656517493 0.39540701425767344 -0.4698658049108846
-0.5442310656517493 0.39540701425767344 0.3209482236044623
3 0 8 4
3 0 10 8
3 0 4 2
3 0 6 10
3 0 2 6
4 3 4 8 7
4 1 2 4 3
5 1 3 7 9 5
4 7 8 10 9
4 5 9 10 6
4 1 5 6 2