solid ConvexPolyhedron
facet normal 0.07290315892637336 0.0 -0.0278465288226393
	outer loop
		vertex 0.6358098858659154 -0.15009435383073877 -0.15009435383073877
		vertex 0.5430464736790659 0.0 -0.3929521198483272
		vertex 0.6358098858659154 0.15009435383073877 -0.15009435383073877
	endloop
endfacet
facet normal -0.07290315892637336 0.0 -0.0278465288226393
	outer loop
		vertex -0.5430464736790659 0.0 -0.3929521198483272
		vertex -0.6358098858659154 -0.15009435383073877 -0.15009435383073877
		vertex -0.6358098858659154 0.15009435383073877 -0.15009435383073877
	endloop
endfacet
facet normal -0.07290315892637332 0.0 0.0278465288226393
	outer loop
		vertex -0.5430464736790659 0.0 0.39295211984832706
		vertex -0.6358098858659154 0.15009435383073877 0.15009435383073877
		vertex -0.6358098858659154 -0.15009435383073877 0.15009435383073877
	endloop
endfacet
facet normal 0.0 0.0278465288226393 -0.07290315892637332
	outer loop
		vertex -0.15009435383073877 0.15009435383073877 -0.6358098858659154
		vertex 0.0 0.39295211984832706 -0.5430464736790659
		vertex 0.15009435383073877 0.15009435383073877 -0.6358098858659154
	endloop
endfacet
facet normal 0.0 -0.0278465288226393 -0.07290315892637336
	outer loop
		vertex -0.15009435383073877 -0.15009435383073877 -0.6358098858659154
		vertex 0.15009435383073877 -0.15009435383073877 -0.6358098858659154
		vertex 0.0 -0.3929521198483272 -0.5430464736790659
	endloop
endfacet
facet normal 0.07290315892637332 -0.0 0.0278465288226393
	outer loop
		vertex 0.6358098858659154 -0.15009435383073877 0.15009435383073877
		vertex 0.6358098858659154 0.15009435383073877 0.15009435383073877
		vertex 0.5430464736790659 0.0 0.39295211984832706
	endloop
endfacet
facet normal 0.045056630103734036 0.04505663010373401 -0.045056630103734015
	outer loop
		vertex 0.24285776601758832 0.48571553203517664 -0.3929521198483272
		vertex 0.48571553203517664 0.39295211984832706 -0.24285776601758832
		vertex 0.39295211984832706 0.24285776601758832 -0.48571553203517664
	endloop
endfacet
facet normal -0.045056630103734036 0.04505663010373402 -0.04505663010373401
	outer loop
		vertex -0.24285776601758832 0.48571553203517664 -0.3929521198483272
		vertex -0.3929521198483272 0.24285776601758832 -0.48571553203517664
		vertex -0.48571553203517664 0.39295211984832706 -0.24285776601758832
	endloop
endfacet
facet normal 0.04505663010373402 -0.04505663010373401 -0.045056630103734036
	outer loop
		vertex 0.24285776601758832 -0.48571553203517664 -0.3929521198483272
		vertex 0.39295211984832706 -0.24285776601758832 -0.48571553203517664
		vertex 0.48571553203517664 -0.3929521198483272 -0.24285776601758832
	endloop
endfacet
facet normal -0.04505663010373402 -0.04505663010373402 -0.04505663010373402
	outer loop
		vertex -0.24285776601758832 -0.48571553203517664 -0.3929521198483272
		vertex -0.48571553203517664 -0.3929521198483272 -0.24285776601758832
		vertex -0.3929521198483272 -0.24285776601758832 -0.48571553203517664
	endloop
endfacet
facet normal -0.07290315892637333 0.02784652882263931 0.04505663010373398
	outer loop
		vertex -0.5430464736790659 0.0 0.39295211984832706
		vertex -0.3929521198483272 0.24285776601758832 0.48571553203517664
		vertex -0.48571553203517664 0.39295211984832706 0.24285776601758832
	endloop
endfacet
facet normal -0.07290315892637332 0.02784652882263931 0.04505663010373399
	outer loop
		vertex -0.5430464736790659 0.0 0.39295211984832706
		vertex -0.48571553203517664 0.39295211984832706 0.24285776601758832
		vertex -0.6358098858659154 0.15009435383073877 0.15009435383073877
	endloop
endfacet
facet normal 0.07290315892637335 0.027846528822639327 -0.04505663010373398
	outer loop
		vertex 0.48571553203517664 0.39295211984832706 -0.24285776601758832
		vertex 0.6358098858659154 0.15009435383073877 -0.15009435383073877
		vertex 0.5430464736790659 0.0 -0.3929521198483272
	endloop
endfacet
facet normal 0.07290315892637333 0.02784652882263934 -0.04505663010373403
	outer loop
		vertex 0.48571553203517664 0.39295211984832706 -0.24285776601758832
		vertex 0.5430464736790659 0.0 -0.3929521198483272
		vertex 0.39295211984832706 0.24285776601758832 -0.48571553203517664
	endloop
endfacet
facet normal -0.045056630103733994 0.0 0.07290315892637336
	outer loop
		vertex -0.15009435383073877 -0.15009435383073877 0.6358098858659154
		vertex -0.15009435383073877 0.15009435383073877 0.6358098858659154
		vertex -0.3929521198483272 0.24285776601758832 0.48571553203517664
	endloop
endfacet
facet normal -0.07290315892637333 -3.469446951953614e-17 0.11795978903010736
	outer loop
		vertex -0.15009435383073877 -0.15009435383073877 0.6358098858659154
		vertex -0.3929521198483272 0.24285776601758832 0.48571553203517664
		vertex -0.5430464736790659 0.0 0.39295211984832706
	endloop
endfacet
facet normal -0.04505663010373401 4.163336342344337e-17 0.07290315892637336
	outer loop
		vertex -0.15009435383073877 -0.15009435383073877 0.6358098858659154
		vertex -0.5430464736790659 0.0 0.39295211984832706
		vertex -0.3929521198483272 -0.24285776601758832 0.48571553203517664
	endloop
endfacet
facet normal -0.09011326020746803 0.0 0.0
	outer loop
		vertex -0.6358098858659154 -0.15009435383073877 -0.15009435383073877
		vertex -0.6358098858659154 -0.15009435383073877 0.15009435383073877
		vertex -0.6358098858659154 0.15009435383073877 0.15009435383073877
	endloop
endfacet
facet normal -0.09011326020746803 0.0 0.0
	outer loop
		vertex -0.6358098858659154 -0.15009435383073877 -0.15009435383073877
		vertex -0.6358098858659154 0.15009435383073877 0.15009435383073877
		vertex -0.6358098858659154 0.15009435383073877 -0.15009435383073877
	endloop
endfacet
facet normal -0.07290315892637335 -0.027846528822639306 0.045056630103733994
	outer loop
		vertex -0.5430464736790659 0.0 0.39295211984832706
		vertex -0.6358098858659154 -0.15009435383073877 0.15009435383073877
		vertex -0.48571553203517664 -0.3929521198483272 0.24285776601758832
	endloop
endfacet
facet normal -0.07290315892637335 -0.027846528822639313 0.045056630103734
	outer loop
		vertex -0.5430464736790659 0.0 0.39295211984832706
		vertex -0.48571553203517664 -0.3929521198483272 0.24285776601758832
		vertex -0.3929521198483272 -0.24285776601758832 0.48571553203517664
	endloop
endfacet
facet normal 0.07290315892637333 -0.027846528822639337 -0.04505663010373405
	outer loop
		vertex 0.48571553203517664 -0.3929521198483272 -0.24285776601758832
		vertex 0.39295211984832706 -0.24285776601758832 -0.48571553203517664
		vertex 0.5430464736790659 0.0 -0.3929521198483272
	endloop
endfacet
facet normal 0.07290315892637338 -0.027846528822639327 -0.045056630103733994
	outer loop
		vertex 0.48571553203517664 -0.3929521198483272 -0.24285776601758832
		vertex 0.5430464736790659 0.0 -0.3929521198483272
		vertex 0.6358098858659154 -0.15009435383073877 -0.15009435383073877
	endloop
endfacet
facet normal 0.0 0.0 0.09011326020746803
	outer loop
		vertex -0.15009435383073877 -0.15009435383073877 0.6358098858659154
		vertex 0.15009435383073877 -0.15009435383073877 0.6358098858659154
		vertex 0.15009435383073877 0.15009435383073877 0.6358098858659154
	endloop
endfacet
facet normal 0.0 -0.0 0.09011326020746803
	outer loop
		vertex -0.15009435383073877 -0.15009435383073877 0.6358098858659154
		vertex 0.15009435383073877 0.15009435383073877 0.6358098858659154
		vertex -0.15009435383073877 0.15009435383073877 0.6358098858659154
	endloop
endfacet
facet normal -0.07290315892637333 -0.02784652882263932 -0.045056630103734
	outer loop
		vertex -0.5430464736790659 0.0 -0.3929521198483272
		vertex -0.3929521198483272 -0.24285776601758832 -0.48571553203517664
		vertex -0.48571553203517664 -0.3929521198483272 -0.24285776601758832
	endloop
endfacet
facet normal -0.07290315892637339 -0.027846528822639327 -0.045056630103733994
	outer loop
		vertex -0.5430464736790659 0.0 -0.3929521198483272
		vertex -0.48571553203517664 -0.3929521198483272 -0.24285776601758832
		vertex -0.6358098858659154 -0.15009435383073877 -0.15009435383073877
	endloop
endfacet
facet normal -0.07290315892637331 -0.04505663010373398 0.0
	outer loop
		vertex -0.48571553203517664 -0.3929521198483272 -0.24285776601758832
		vertex -0.3929521198483272 -0.5430464736790659 0.0
		vertex -0.48571553203517664 -0.3929521198483272 0.24285776601758832
	endloop
endfacet
facet normal -0.1179597890301074 -0.07290315892637331 0.0
	outer loop
		vertex -0.48571553203517664 -0.3929521198483272 -0.24285776601758832
		vertex -0.48571553203517664 -0.3929521198483272 0.24285776601758832
		vertex -0.6358098858659154 -0.15009435383073877 0.15009435383073877
	endloop
endfacet
facet normal -0.07290315892637336 -0.045056630103733994 -0.0
	outer loop
		vertex -0.48571553203517664 -0.3929521198483272 -0.24285776601758832
		vertex -0.6358098858659154 -0.15009435383073877 0.15009435383073877
		vertex -0.6358098858659154 -0.15009435383073877 -0.15009435383073877
	endloop
endfacet
facet normal -0.027846528822639313 0.04505663010373401 -0.07290315892637336
	outer loop
		vertex -0.15009435383073877 0.15009435383073877 -0.6358098858659154
		vertex -0.3929521198483272 0.24285776601758832 -0.48571553203517664
		vertex -0.24285776601758832 0.48571553203517664 -0.3929521198483272
	endloop
endfacet
facet normal -0.027846528822639306 0.04505663010373399 -0.07290315892637333
	outer loop
		vertex -0.15009435383073877 0.15009435383073877 -0.6358098858659154
		vertex -0.24285776601758832 0.48571553203517664 -0.3929521198483272
		vertex 0.0 0.39295211984832706 -0.5430464736790659
	endloop
endfacet
facet normal -0.045056630103733994 6.938893903907228e-18 -0.07290315892637336
	outer loop
		vertex -0.15009435383073877 -0.15009435383073877 -0.6358098858659154
		vertex -0.3929521198483272 -0.24285776601758832 -0.48571553203517664
		vertex -0.5430464736790659 0.0 -0.3929521198483272
	endloop
endfacet
facet normal -0.0729031589263733 -6.938893903907228e-18 -0.11795978903010734
	outer loop
		vertex -0.15009435383073877 -0.15009435383073877 -0.6358098858659154
		vertex -0.5430464736790659 0.0 -0.3929521198483272
		vertex -0.3929521198483272 0.24285776601758832 -0.48571553203517664
	endloop
endfacet
facet normal -0.045056630103734 0.0 -0.07290315892637336
	outer loop
		vertex -0.15009435383073877 -0.15009435383073877 -0.6358098858659154
		vertex -0.3929521198483272 0.24285776601758832 -0.48571553203517664
		vertex -0.15009435383073877 0.15009435383073877 -0.6358098858659154
	endloop
endfacet
facet normal 0.0 0.0 -0.09011326020746803
	outer loop
		vertex -0.15009435383073877 -0.15009435383073877 -0.6358098858659154
		vertex -0.15009435383073877 0.15009435383073877 -0.6358098858659154
		vertex 0.15009435383073877 0.15009435383073877 -0.6358098858659154
	endloop
endfacet
facet normal 0.0 0.0 -0.09011326020746803
	outer loop
		vertex -0.15009435383073877 -0.15009435383073877 -0.6358098858659154
		vertex 0.15009435383073877 0.15009435383073877 -0.6358098858659154
		vertex 0.15009435383073877 -0.15009435383073877 -0.6358098858659154
	endloop
endfacet
facet normal 0.045056630103733994 0.0 -0.07290315892637332
	outer loop
		vertex 0.15009435383073877 -0.15009435383073877 -0.6358098858659154
		vertex 0.15009435383073877 0.15009435383073877 -0.6358098858659154
		vertex 0.39295211984832706 0.24285776601758832 -0.48571553203517664
	endloop
endfacet
facet normal 0.0729031589263733 2.0816681711721685e-17 -0.11795978903010737
	outer loop
		vertex 0.15009435383073877 -0.15009435383073877 -0.6358098858659154
		vertex 0.39295211984832706 0.24285776601758832 -0.48571553203517664
		vertex 0.5430464736790659 0.0 -0.3929521198483272
	endloop
endfacet
facet normal 0.045056630103733994 -2.0816681711721685e-17 -0.07290315892637333
	outer loop
		vertex 0.15009435383073877 -0.15009435383073877 -0.6358098858659154
		vertex 0.5430464736790659 0.0 -0.3929521198483272
		vertex 0.39295211984832706 -0.24285776601758832 -0.48571553203517664
	endloop
endfacet
facet normal 0.07290315892637335 -0.027846528822639306 0.045056630103733994
	outer loop
		vertex 0.48571553203517664 -0.3929521198483272 0.24285776601758832
		vertex 0.6358098858659154 -0.15009435383073877 0.15009435383073877
		vertex 0.5430464736790659 0.0 0.39295211984832706
	endloop
endfacet
facet normal 0.07290315892637335 -0.027846528822639327 0.04505663010373404
	outer loop
		vertex 0.48571553203517664 -0.3929521198483272 0.24285776601758832
		vertex 0.5430464736790659 0.0 0.39295211984832706
		vertex 0.39295211984832706 -0.24285776601758832 0.48571553203517664
	endloop
endfacet
facet normal 0.09011326020746803 0.0 0.0
	outer loop
		vertex 0.6358098858659154 -0.15009435383073877 -0.15009435383073877
		vertex 0.6358098858659154 0.15009435383073877 -0.15009435383073877
		vertex 0.6358098858659154 0.15009435383073877 0.15009435383073877
	endloop
endfacet
facet normal 0.09011326020746803 0.0 -0.0
	outer loop
		vertex 0.6358098858659154 -0.15009435383073877 -0.15009435383073877
		vertex 0.6358098858659154 0.15009435383073877 0.15009435383073877
		vertex 0.6358098858659154 -0.15009435383073877 0.15009435383073877
	endloop
endfacet
facet normal 0.07290315892637336 0.045056630103734036 0.0
	outer loop
		vertex 0.48571553203517664 0.39295211984832706 -0.24285776601758832
		vertex 0.39295211984832706 0.5430464736790659 0.0
		vertex 0.48571553203517664 0.39295211984832706 0.24285776601758832
	endloop
endfacet
facet normal 0.11795978903010734 0.07290315892637331 -0.0
	outer loop
		vertex 0.48571553203517664 0.39295211984832706 -0.24285776601758832
		vertex 0.48571553203517664 0.39295211984832706 0.24285776601758832
		vertex 0.6358098858659154 0.15009435383073877 0.15009435383073877
	endloop
endfacet
facet normal 0.07290315892637332 0.045056630103733994 0.0
	outer loop
		vertex 0.48571553203517664 0.39295211984832706 -0.24285776601758832
		vertex 0.6358098858659154 0.15009435383073877 0.15009435383073877
		vertex 0.6358098858659154 0.15009435383073877 -0.15009435383073877
	endloop
endfacet
facet normal 0.02784652882263931 0.04505663010373398 -0.07290315892637333
	outer loop
		vertex 0.0 0.39295211984832706 -0.5430464736790659
		vertex 0.24285776601758832 0.48571553203517664 -0.3929521198483272
		vertex 0.39295211984832706 0.24285776601758832 -0.48571553203517664
	endloop
endfacet
facet normal 0.02784652882263931 0.04505663010373399 -0.07290315892637332
	outer loop
		vertex 0.0 0.39295211984832706 -0.5430464736790659
		vertex 0.39295211984832706 0.24285776601758832 -0.48571553203517664
		vertex 0.15009435383073877 0.15009435383073877 -0.6358098858659154
	endloop
endfacet
facet normal 0.0 0.07290315892637336 -0.045056630103733994
	outer loop
		vertex -0.15009435383073877 0.6358098858659154 -0.15009435383073877
		vertex 0.15009435383073877 0.6358098858659154 -0.15009435383073877
		vertex 0.24285776601758832 0.48571553203517664 -0.3929521198483272
	endloop
endfacet
facet normal -3.469446951953614e-17 0.11795978903010736 -0.07290315892637333
	outer loop
		vertex -0.15009435383073877 0.6358098858659154 -0.15009435383073877
		vertex 0.24285776601758832 0.48571553203517664 -0.3929521198483272
		vertex 0.0 0.39295211984832706 -0.5430464736790659
	endloop
endfacet
facet normal 4.163336342344337e-17 0.07290315892637336 -0.04505663010373401
	outer loop
		vertex -0.15009435383073877 0.6358098858659154 -0.15009435383073877
		vertex 0.0 0.39295211984832706 -0.5430464736790659
		vertex -0.24285776601758832 0.48571553203517664 -0.3929521198483272
	endloop
endfacet
facet normal 0.04505663010373401 0.07290315892637333 -0.02784652882263933
	outer loop
		vertex 0.15009435383073877 0.6358098858659154 -0.15009435383073877
		vertex 0.39295211984832706 0.5430464736790659 0.0
		vertex 0.48571553203517664 0.39295211984832706 -0.24285776601758832
	endloop
endfacet
facet normal 0.045056630103734036 0.07290315892637336 -0.027846528822639303
	outer loop
		vertex 0.15009435383073877 0.6358098858659154 -0.15009435383073877
		vertex 0.48571553203517664 0.39295211984832706 -0.24285776601758832
		vertex 0.24285776601758832 0.48571553203517664 -0.3929521198483272
	endloop
endfacet
facet normal -0.07290315892637335 0.027846528822639327 -0.04505663010373398
	outer loop
		vertex -0.5430464736790659 0.0 -0.3929521198483272
		vertex -0.6358098858659154 0.15009435383073877 -0.15009435383073877
		vertex -0.48571553203517664 0.39295211984832706 -0.24285776601758832
	endloop
endfacet
facet normal -0.07290315892637332 0.02784652882263932 -0.04505663010373399
	outer loop
		vertex -0.5430464736790659 0.0 -0.3929521198483272
		vertex -0.48571553203517664 0.39295211984832706 -0.24285776601758832
		vertex -0.3929521198483272 0.24285776601758832 -0.48571553203517664
	endloop
endfacet
facet normal 0.07290315892637336 -0.045056630103733994 0.0
	outer loop
		vertex 0.48571553203517664 -0.3929521198483272 -0.24285776601758832
		vertex 0.6358098858659154 -0.15009435383073877 -0.15009435383073877
		vertex 0.6358098858659154 -0.15009435383073877 0.15009435383073877
	endloop
endfacet
facet normal 0.1179597890301074 -0.07290315892637331 0.0
	outer loop
		vertex 0.48571553203517664 -0.3929521198483272 -0.24285776601758832
		vertex 0.6358098858659154 -0.15009435383073877 0.15009435383073877
		vertex 0.48571553203517664 -0.3929521198483272 0.24285776601758832
	endloop
endfacet
facet normal 0.07290315892637331 -0.045056630103734036 0.0
	outer loop
		vertex 0.48571553203517664 -0.3929521198483272 -0.24285776601758832
		vertex 0.48571553203517664 -0.3929521198483272 0.24285776601758832
		vertex 0.39295211984832706 -0.5430464736790659 0.0
	endloop
endfacet
facet normal 0.027846528822639327 -0.04505663010373398 -0.07290315892637335
	outer loop
		vertex 0.0 -0.3929521198483272 -0.5430464736790659
		vertex 0.15009435383073877 -0.15009435383073877 -0.6358098858659154
		vertex 0.39295211984832706 -0.24285776601758832 -0.48571553203517664
	endloop
endfacet
facet normal 0.02784652882263932 -0.04505663010373399 -0.07290315892637332
	outer loop
		vertex 0.0 -0.3929521198483272 -0.5430464736790659
		vertex 0.39295211984832706 -0.24285776601758832 -0.48571553203517664
		vertex 0.24285776601758832 -0.48571553203517664 -0.3929521198483272
	endloop
endfacet
facet normal 0.04505663010373401 6.938893903907228e-18 0.07290315892637333
	outer loop
		vertex 0.15009435383073877 -0.15009435383073877 0.6358098858659154
		vertex 0.39295211984832706 -0.24285776601758832 0.48571553203517664
		vertex 0.5430464736790659 0.0 0.39295211984832706
	endloop
endfacet
facet normal 0.07290315892637333 -1.3877787807814457e-17 0.11795978903010737
	outer loop
		vertex 0.15009435383073877 -0.15009435383073877 0.6358098858659154
		vertex 0.5430464736790659 0.0 0.39295211984832706
		vertex 0.39295211984832706 0.24285776601758832 0.48571553203517664
	endloop
endfacet
facet normal 0.045056630103734 0.0 0.07290315892637333
	outer loop
		vertex 0.15009435383073877 -0.15009435383073877 0.6358098858659154
		vertex 0.39295211984832706 0.24285776601758832 0.48571553203517664
		vertex 0.15009435383073877 0.15009435383073877 0.6358098858659154
	endloop
endfacet
facet normal 0.07290315892637333 0.027846528822639327 0.04505663010373403
	outer loop
		vertex 0.48571553203517664 0.39295211984832706 0.24285776601758832
		vertex 0.39295211984832706 0.24285776601758832 0.48571553203517664
		vertex 0.5430464736790659 0.0 0.39295211984832706
	endloop
endfacet
facet normal 0.07290315892637332 0.02784652882263931 0.04505663010373399
	outer loop
		vertex 0.48571553203517664 0.39295211984832706 0.24285776601758832
		vertex 0.5430464736790659 0.0 0.39295211984832706
		vertex 0.6358098858659154 0.15009435383073877 0.15009435383073877
	endloop
endfacet
facet normal -0.04505663010373399 -0.07290315892637335 -0.027846528822639334
	outer loop
		vertex -0.15009435383073877 -0.6358098858659154 -0.15009435383073877
		vertex -0.3929521198483272 -0.5430464736790659 0.0
		vertex -0.48571553203517664 -0.3929521198483272 -0.24285776601758832
	endloop
endfacet
facet normal -0.04505663010373401 -0.07290315892637336 -0.027846528822639313
	outer loop
		vertex -0.15009435383073877 -0.6358098858659154 -0.15009435383073877
		vertex -0.48571553203517664 -0.3929521198483272 -0.24285776601758832
		vertex -0.24285776601758832 -0.48571553203517664 -0.3929521198483272
	endloop
endfacet
facet normal -0.027846528822639334 -0.04505663010373399 -0.07290315892637335
	outer loop
		vertex -0.15009435383073877 -0.15009435383073877 -0.6358098858659154
		vertex 0.0 -0.3929521198483272 -0.5430464736790659
		vertex -0.24285776601758832 -0.48571553203517664 -0.3929521198483272
	endloop
endfacet
facet normal -0.027846528822639313 -0.04505663010373401 -0.07290315892637336
	outer loop
		vertex -0.15009435383073877 -0.15009435383073877 -0.6358098858659154
		vertex -0.24285776601758832 -0.48571553203517664 -0.3929521198483272
		vertex -0.3929521198483272 -0.24285776601758832 -0.48571553203517664
	endloop
endfacet
facet normal -0.0 0.045056630103733994 0.027846528822639324
	outer loop
		vertex -0.15009435383073877 0.15009435383073877 0.6358098858659154
		vertex 0.15009435383073877 0.15009435383073877 0.6358098858659154
		vertex 0.39295211984832706 0.24285776601758832 0.48571553203517664
	endloop
endfacet
facet normal -1.734723475976807e-17 0.11795978903010734 0.07290315892637332
	outer loop
		vertex -0.15009435383073877 0.15009435383073877 0.6358098858659154
		vertex 0.39295211984832706 0.24285776601758832 0.48571553203517664
		vertex 0.48571553203517664 0.39295211984832706 0.24285776601758832
	endloop
endfacet
facet normal 1.3877787807814457e-17 0.19086294795648068 0.11795978903010738
	outer loop
		vertex -0.15009435383073877 0.15009435383073877 0.6358098858659154
		vertex 0.48571553203517664 0.39295211984832706 0.24285776601758832
		vertex 0.39295211984832706 0.5430464736790659 0.0
	endloop
endfacet
facet normal -5.551115123125783e-17 0.23591957806021469 0.14580631785274661
	outer loop
		vertex -0.15009435383073877 0.15009435383073877 0.6358098858659154
		vertex 0.39295211984832706 0.5430464736790659 0.0
		vertex 0.15009435383073877 0.6358098858659154 -0.15009435383073877
	endloop
endfacet
facet normal 0.0 0.23591957806021469 0.14580631785274664
	outer loop
		vertex -0.15009435383073877 0.15009435383073877 0.6358098858659154
		vertex 0.15009435383073877 0.6358098858659154 -0.15009435383073877
		vertex -0.15009435383073877 0.6358098858659154 -0.15009435383073877
	endloop
endfacet
facet normal 4.163336342344337e-17 0.19086294795648073 0.11795978903010738
	outer loop
		vertex -0.15009435383073877 0.15009435383073877 0.6358098858659154
		vertex -0.15009435383073877 0.6358098858659154 -0.15009435383073877
		vertex -0.3929521198483272 0.5430464736790659 0.0
	endloop
endfacet
facet normal -1.3877787807814457e-17 0.11795978903010731 0.07290315892637333
	outer loop
		vertex -0.15009435383073877 0.15009435383073877 0.6358098858659154
		vertex -0.3929521198483272 0.5430464736790659 0.0
		vertex -0.48571553203517664 0.39295211984832706 0.24285776601758832
	endloop
endfacet
facet normal 2.0816681711721685e-17 0.045056630103734056 0.02784652882263933
	outer loop
		vertex -0.15009435383073877 0.15009435383073877 0.6358098858659154
		vertex -0.48571553203517664 0.39295211984832706 0.24285776601758832
		vertex -0.3929521198483272 0.24285776601758832 0.48571553203517664
	endloop
endfacet
facet normal -0.07290315892637332 0.045056630103733994 0.0
	outer loop
		vertex -0.48571553203517664 0.39295211984832706 -0.24285776601758832
		vertex -0.6358098858659154 0.15009435383073877 -0.15009435383073877
		vertex -0.6358098858659154 0.15009435383073877 0.15009435383073877
	endloop
endfacet
facet normal -0.11795978903010734 0.07290315892637331 0.0
	outer loop
		vertex -0.48571553203517664 0.39295211984832706 -0.24285776601758832
		vertex -0.6358098858659154 0.15009435383073877 0.15009435383073877
		vertex -0.48571553203517664 0.39295211984832706 0.24285776601758832
	endloop
endfacet
facet normal -0.07290315892637336 0.04505663010373398 0.0
	outer loop
		vertex -0.48571553203517664 0.39295211984832706 -0.24285776601758832
		vertex -0.48571553203517664 0.39295211984832706 0.24285776601758832
		vertex -0.3929521198483272 0.5430464736790659 0.0
	endloop
endfacet
facet normal -0.045056630103734036 0.07290315892637336 -0.027846528822639303
	outer loop
		vertex -0.15009435383073877 0.6358098858659154 -0.15009435383073877
		vertex -0.24285776601758832 0.48571553203517664 -0.3929521198483272
		vertex -0.48571553203517664 0.39295211984832706 -0.24285776601758832
	endloop
endfacet
facet normal -0.04505663010373401 0.07290315892637335 -0.02784652882263936
	outer loop
		vertex -0.15009435383073877 0.6358098858659154 -0.15009435383073877
		vertex -0.48571553203517664 0.39295211984832706 -0.24285776601758832
		vertex -0.3929521198483272 0.5430464736790659 0.0
	endloop
endfacet
facet normal 0.0 -0.045056630103734056 0.027846528822639362
	outer loop
		vertex -0.15009435383073877 -0.15009435383073877 0.6358098858659154
		vertex -0.3929521198483272 -0.24285776601758832 0.48571553203517664
		vertex -0.48571553203517664 -0.3929521198483272 0.24285776601758832
	endloop
endfacet
facet normal 6.245004513516506e-17 -0.11795978903010731 0.07290315892637331
	outer loop
		vertex -0.15009435383073877 -0.15009435383073877 0.6358098858659154
		vertex -0.48571553203517664 -0.3929521198483272 0.24285776601758832
		vertex -0.3929521198483272 -0.5430464736790659 0.0
	endloop
endfacet
facet normal 5.551115123125783e-17 -0.19086294795648073 0.11795978903010737
	outer loop
		vertex -0.15009435383073877 -0.15009435383073877 0.6358098858659154
		vertex -0.3929521198483272 -0.5430464736790659 0.0
		vertex -0.15009435383073877 -0.6358098858659154 -0.15009435383073877
	endloop
endfacet
facet normal 0.0 -0.23591957806021469 0.14580631785274664
	outer loop
		vertex -0.15009435383073877 -0.15009435383073877 0.6358098858659154
		vertex -0.15009435383073877 -0.6358098858659154 -0.15009435383073877
		vertex 0.15009435383073877 -0.6358098858659154 -0.15009435383073877
	endloop
endfacet
facet normal -4.163336342344337e-17 -0.23591957806021466 0.14580631785274661
	outer loop
		vertex -0.15009435383073877 -0.15009435383073877 0.6358098858659154
		vertex 0.15009435383073877 -0.6358098858659154 -0.15009435383073877
		vertex 0.39295211984832706 -0.5430464736790659 0.0
	endloop
endfacet
facet normal -5.551115123125783e-17 -0.1908629479564807 0.11795978903010734
	outer loop
		vertex -0.15009435383073877 -0.15009435383073877 0.6358098858659154
		vertex 0.39295211984832706 -0.5430464736790659 0.0
		vertex 0.48571553203517664 -0.3929521198483272 0.24285776601758832
	endloop
endfacet
facet normal -6.938893903907228e-18 -0.11795978903010734 0.07290315892637336
	outer loop
		vertex -0.15009435383073877 -0.15009435383073877 0.6358098858659154
		vertex 0.48571553203517664 -0.3929521198483272 0.24285776601758832
		vertex 0.39295211984832706 -0.24285776601758832 0.48571553203517664
	endloop
endfacet
facet normal 0.0 -0.045056630103734 0.02784652882263933
	outer loop
		vertex -0.15009435383073877 -0.15009435383073877 0.6358098858659154
		vertex 0.39295211984832706 -0.24285776601758832 0.48571553203517664
		vertex 0.15009435383073877 -0.15009435383073877 0.6358098858659154
	endloop
endfacet
facet normal 6.938893903907228e-18 -0.07290315892637336 -0.045056630103733994
	outer loop
		vertex -0.15009435383073877 -0.6358098858659154 -0.15009435383073877
		vertex -0.24285776601758832 -0.48571553203517664 -0.3929521198483272
		vertex 0.0 -0.3929521198483272 -0.5430464736790659
	endloop
endfacet
facet normal -6.938893903907228e-18 -0.11795978903010734 -0.0729031589263733
	outer loop
		vertex -0.15009435383073877 -0.6358098858659154 -0.15009435383073877
		vertex 0.0 -0.3929521198483272 -0.5430464736790659
		vertex 0.24285776601758832 -0.48571553203517664 -0.3929521198483272
	endloop
endfacet
facet normal 0.0 -0.07290315892637336 -0.045056630103734
	outer loop
		vertex -0.15009435383073877 -0.6358098858659154 -0.15009435383073877
		vertex 0.24285776601758832 -0.48571553203517664 -0.3929521198483272
		vertex 0.15009435383073877 -0.6358098858659154 -0.15009435383073877
	endloop
endfacet
facet normal 0.04505663010373401 -0.07290315892637336 -0.027846528822639313
	outer loop
		vertex 0.15009435383073877 -0.6358098858659154 -0.15009435383073877
		vertex 0.24285776601758832 -0.48571553203517664 -0.3929521198483272
		vertex 0.48571553203517664 -0.3929521198483272 -0.24285776601758832
	endloop
endfacet
facet normal 0.04505663010373399 -0.07290315892637333 -0.027846528822639306
	outer loop
		vertex 0.15009435383073877 -0.6358098858659154 -0.15009435383073877
		vertex 0.48571553203517664 -0.3929521198483272 -0.24285776601758832
		vertex 0.39295211984832706 -0.5430464736790659 0.0
	endloop
endfacet
endsolid ConvexPolyhedron