solid ConvexPolyhedron
facet normal -0.1016002490416318 0.31269341384833604 0.4303855614712601
	outer loop
		vertex 0.0 0.0 1.2065695672061325
		vertex 0.20787776934539276 0.6397819884590299 0.7908140285153469
		vertex -0.5442310656517493 0.39540701425767344 0.7908140285153469
	endloop
endfacet
facet normal -0.1016002490416318 -0.31269341384833604 0.43038556147126006
	outer loop
		vertex 0.0 0.0 1.2065695672061325
		vertex -0.5442310656517493 -0.39540701425767344 0.7908140285153469
		vertex 0.20787776934539276 -0.6397819884590299 0.7908140285153469
	endloop
endfacet
facet normal -0.32878531242962833 0.0 0.43038556147126006
	outer loop
		vertex 0.0 0.0 1.2065695672061325
		vertex -0.5442310656517493 0.39540701425767344 0.7908140285153469
		vertex -0.5442310656517493 -0.39540701425767344 0.7908140285153469
	endloop
endfacet
facet normal 0.265992905256446 -0.19325515781650868 0.43038556147126006
	outer loop
		vertex 0.0 0.0 1.2065695672061325
		vertex 0.20787776934539276 -0.6397819884590299 0.7908140285153469
		vertex 0.6727065926127129 0.0 0.7908140285153469
	endloop
endfacet
facet normal 0.265992905256446 0.19325515781650868 0.43038556147126
	outer loop
		vertex 0.0 0.0 1.2065695672061325
		vertex 0.6727065926127129 0.0 0.7908140285153469
		vertex 0.20787776934539276 0.6397819884590299 0.7908140285153469
	endloop
endfacet
facet normal -0.19325515781650865 0.5947782176860742 0.0
	outer loop
		vertex 0.20787776934539276 0.6397819884590299 0.0
		vertex -0.5442310656517493 0.39540701425767344 0.0
		vertex -0.5442310656517493 0.39540701425767344 0.7908140285153469
	endloop
endfacet
facet normal -0.19325515781650865 0.5947782176860742 0.0
	outer loop
		vertex 0.20787776934539276 0.6397819884590299 0.0
		vertex -0.5442310656517493 0.39540701425767344 0.7908140285153469
		vertex 0.20787776934539276 0.6397819884590299 0.7908140285153469
	endloop
endfacet
facet normal -0.0 0.0 -0.5947782176860743
	outer loop
		vertex 0.6727065926127129 0.0 0.0
		vertex 0.20787776934539276 -0.6397819884590299 0.0
		vertex -0.5442310656517493 -0.39540701425767344 0.0
	endloop
endfacet
facet normal -0.0 0.0 -0.9623713719841519
	outer loop
		vertex 0.6727065926127129 0.0 0.0
		vertex -0.5442310656517493 -0.39540701425767344 0.0
		vertex -0.5442310656517493 0.39540701425767344 0.0
	endloop
endfacet
facet normal 0.0 0.0 -0.5947782176860742
	outer loop
		vertex 0.6727065926127129 0.0 0.0
		vertex -0.5442310656517493 0.39540701425767344 0.0
		vertex 0.20787776934539276 0.6397819884590299 0.0
	endloop
endfacet
facet normal -0.19325515781650865 -0.5947782176860742 0.0
	outer loop
		vertex 0.20787776934539276 -0.6397819884590299 0.0
		vertex 0.20787776934539276 -0.6397819884590299 0.7908140285153469
		vertex -0.5442310656517493 -0.39540701425767344 0.7908140285153469
	endloop
endfacet
facet normal -0.19325515781650865 -0.5947782176860742 -0.0
	outer loop
		vertex 0.20787776934539276 -0.6397819884590299 0.0
		vertex -0.5442310656517493 -0.39540701425767344 0.7908140285153469
		vertex -0.5442310656517493 -0.39540701425767344 0.0
	endloop
endfacet
facet normal -0.6253868276966719 0.0 0.0
	outer loop
		vertex -0.5442310656517493 -0.39540701425767344 0.0
		vertex -0.5442310656517493 -0.39540701425767344 0.7908140285153469
		vertex -0.5442310656517493 0.39540701425767344 0.7908140285153469
	endloop
endfacet
facet normal -0.6253868276966719 0.0 0.0
	outer loop
		vertex -0.5442310656517493 -0.39540701425767344 0.0
		vertex -0.5442310656517493 0.39540701425767344 0.7908140285153469
		vertex -0.5442310656517493 0.39540701425767344 0.0
	endloop
endfacet
facet normal 0.5059485716648446 -0.36759315429807765 0.0
	outer loop
		vertex 0.6727065926127129 0.0 0.0
		vertex 0.6727065926127129 0.0 0.7908140285153469
		vertex 0.20787776934539276 -0.6397819884590299 0.7908140285153469
	endloop
endfacet
facet normal 0.5059485716648446 -0.36759315429807765 0.0
	outer loop
		vertex 0.6727065926127129 0.0 0.0
		vertex 0.20787776934539276 -0.6397819884590299 0.7908140285153469
		vertex 0.20787776934539276 -0.6397819884590299 0.0
	endloop
endfacet
facet normal 0.5059485716648446 0.36759315429807765 -0.0
	outer loop
		vertex 0.6727065926127129 0.0 0.0
		vertex 0.20787776934539276 0.6397819884590299 0.0
		vertex 0.20787776934539276 0.6397819884590299 0.7908140285153469
	endloop
endfacet
facet normal 0.5059485716648446 0.36759315429807765 0.0
	outer loop
		vertex 0.6727065926127129 0.0 0.0
		vertex 0.20787776934539276 0.6397819884590299 0.7908140285153469
		vertex 0.6727065926127129 0.0 0.7908140285153469
	endloop
endfacet
endsolid ConvexPolyhedron