ply
format ascii 1.0
comment PLY file written by Coxeter version 0.9.0
comment Polyhedron
element vertex 11
property float x
property float y
property float z
element face 11
property list uchar uint vertex_indices
end_header
0.0 0.0 1.2065695672061325
0.6727065926127129 0.0 0.0
0.6727065926127129 0.0 0.7908140285153469
0.20787776934539276 -0.6397819884590299 0.0
0.20787776934539276 -0.6397819884590299 0.7908140285153469
0.20787776934539276 0.6397819884590299 0.0
0.20787776934539276 0.6397819884590299 0.7908140285153469
-0.5442310656517493 -0.39540701425767344 0.0
-0.5442310656517493 -0.39540701425767344 0.7908140285153469
-0.5442310656517493 0.39540701425767344 0.0
-0.5442310656517493 0.39540701425767344 0.7908140285153469
3 0 6 10
3 0 8 4
3 0 10 8
3 0 4 2
3 0 2 6
4 5 9 10 6
5 1 3 7 9 5
4 3 4 8 7
4 7 8 10 9
4 1 2 4 3
4 1 5 6 2