solid Polyhedron
facet normal -0.1016002490416318 -0.31269341384833604 0.43038556147126006
	outer loop
		vertex 0.0 0.0 0.7367037622952479
		vertex -0.5442310656517493 -0.39540701425767344 0.3209482236044623
		vertex 0.2078777693453928 -0.6397819884590299 0.3209482236044623
	endloop
endfacet
facet normal -0.32878531242962833 0.0 0.43038556147126006
	outer loop
		vertex 0.0 0.0 0.7367037622952479
		vertex -0.5442310656517493 0.39540701425767344 0.3209482236044623
		vertex -0.5442310656517493 -0.39540701425767344 0.3209482236044623
	endloop
endfacet
facet normal 0.265992905256446 -0.1932551578165087 0.43038556147126006
	outer loop
		vertex 0.0 0.0 0.7367037622952479
		vertex 0.2078777693453928 -0.6397819884590299 0.3209482236044623
		vertex 0.672706592612713 0.0 0.3209482236044623
	endloop
endfacet
facet normal -0.1016002490416318 0.31269341384833604 0.4303855614712601
	outer loop
		vertex 0.0 0.0 0.7367037622952479
		vertex 0.2078777693453928 0.6397819884590299 0.3209482236044623
		vertex -0.5442310656517493 0.39540701425767344 0.3209482236044623
	endloop
endfacet
facet normal 0.265992905256446 0.1932551578165087 0.4303855614712601
	outer loop
		vertex 0.0 0.0 0.7367037622952479
		vertex 0.672706592612713 0.0 0.3209482236044623
		vertex 0.2078777693453928 0.6397819884590299 0.3209482236044623
	endloop
endfacet
facet normal -0.19325515781650865 -0.5947782176860742 0.0
	outer loop
		vertex 0.2078777693453928 -0.6397819884590299 -0.4698658049108846
		vertex 0.2078777693453928 -0.6397819884590299 0.3209482236044623
		vertex -0.5442310656517493 -0.39540701425767344 0.3209482236044623
	endloop
endfacet
facet normal -0.19325515781650865 -0.5947782176860742 -0.0
	outer loop
		vertex 0.2078777693453928 -0.6397819884590299 -0.4698658049108846
		vertex -0.5442310656517493 -0.39540701425767344 0.3209482236044623
		vertex -0.5442310656517493 -0.39540701425767344 -0.4698658049108846
	endloop
endfacet
facet normal 0.5059485716648446 -0.3675931542980777 0.0
	outer loop
		vertex 0.672706592612713 0.0 -0.4698658049108846
		vertex 0.672706592612713 0.0 0.3209482236044623
		vertex 0.2078777693453928 -0.6397819884590299 0.3209482236044623
	endloop
endfacet
facet normal 0.5059485716648446 -0.3675931542980777 0.0
	outer loop
		vertex 0.672706592612713 0.0 -0.4698658049108846
		vertex 0.2078777693453928 -0.6397819884590299 0.3209482236044623
		vertex 0.2078777693453928 -0.6397819884590299 -0.4698658049108846
	endloop
endfacet
facet normal -0.0 0.0 -0.5947782176860743
	outer loop
		vertex 0.672706592612713 0.0 -0.4698658049108846
		vertex 0.2078777693453928 -0.6397819884590299 -0.4698658049108846
		vertex -0.5442310656517493 -0.39540701425767344 -0.4698658049108846
	endloop
endfacet
facet normal -0.0 0.0 -0.9623713719841519
	outer loop
		vertex 0.672706592612713 0.0 -0.4698658049108846
		vertex -0.5442310656517493 -0.39540701425767344 -0.4698658049108846
		vertex -0.5442310656517493 0.39540701425767344 -0.4698658049108846
	endloop
endfacet
facet normal 0.0 0.0 -0.5947782176860742
	outer loop
		vertex 0.672706592612713 0.0 -0.4698658049108846
		vertex -0.5442310656517493 0.39540701425767344 -0.4698658049108846
		vertex 0.2078777693453928 0.6397819884590299 -0.4698658049108846
	endloop
endfacet
facet normal -0.6253868276966719 0.0 0.0
	outer loop
		vertex -0.5442310656517493 -0.39540701425767344 -0.4698658049108846
		vertex -0.5442310656517493 -0.39540701425767344 0.3209482236044623
		vertex -0.5442310656517493 0.39540701425767344 0.3209482236044623
	endloop
endfacet
facet normal -0.6253868276966719 0.0 0.0
	outer loop
		vertex -0.5442310656517493 -0.39540701425767344 -0.4698658049108846
		vertex -0.5442310656517493 0.39540701425767344 0.3209482236044623
		vertex -0.5442310656517493 0.39540701425767344 -0.4698658049108846
	endloop
endfacet
facet normal -0.19325515781650865 0.5947782176860742 0.0
	outer loop
		vertex 0.2078777693453928 0.6397819884590299 -0.4698658049108846
		vertex -0.5442310656517493 0.39540701425767344 -0.4698658049108846
		vertex -0.5442310656517493 0.39540701425767344 0.3209482236044623
	endloop
endfacet
facet normal -0.19325515781650865 0.5947782176860742 0.0
	outer loop
		vertex 0.2078777693453928 0.6397819884590299 -0.4698658049108846
		vertex -0.5442310656517493 0.39540701425767344 0.3209482236044623
		vertex 0.2078777693453928 0.6397819884590299 0.3209482236044623
	endloop
endfacet
facet normal 0.5059485716648446 0.3675931542980777 -0.0
	outer loop
		vertex 0.672706592612713 0.0 -0.4698658049108846
		vertex 0.2078777693453928 0.6397819884590299 -0.4698658049108846
		vertex 0.2078777693453928 0.6397819884590299 0.3209482236044623
	endloop
endfacet
facet normal 0.5059485716648446 0.3675931542980777 0.0
	outer loop
		vertex 0.672706592612713 0.0 -0.4698658049108846
		vertex 0.2078777693453928 0.6397819884590299 0.3209482236044623
		vertex 0.672706592612713 0.0 0.3209482236044623
	endloop
endfacet
endsolid Polyhedron