ply
format ascii 1.0
comment PLY file written by Coxeter version 0.8.0
comment Polyhedron
element vertex 50
property float x
property float y
property float z
element face 42
property list uchar uint vertex_indices
end_header
-0.15009435383073877 -0.15009435383073877 -0.6358098858659154
-0.15009435383073877 -0.15009435383073877 0.6358098858659154
-0.15009435383073877 0.15009435383073877 -0.6358098858659154
-0.15009435383073877 0.15009435383073877 0.6358098858659154
-0.15009435383073877 -0.6358098858659154 -0.15009435383073877
-0.15009435383073877 0.6358098858659154 -0.15009435383073877
0.0 -0.3929521198483272 -0.5430464736790659
0.0 0.39295211984832706 -0.5430464736790659
0.15009435383073877 -0.15009435383073877 -0.6358098858659154
0.15009435383073877 -0.15009435383073877 0.6358098858659154
0.15009435383073877 0.15009435383073877 -0.6358098858659154
0.15009435383073877 0.15009435383073877 0.6358098858659154
0.15009435383073877 -0.6358098858659154 -0.15009435383073877
0.15009435383073877 0.6358098858659154 -0.15009435383073877
-0.5430464736790659 0.0 -0.3929521198483272
-0.5430464736790659 0.0 0.39295211984832706
-0.24285776601758832 -0.48571553203517664 -0.3929521198483272
-0.24285776601758832 0.48571553203517664 -0.3929521198483272
-0.48571553203517664 -0.3929521198483272 -0.24285776601758832
-0.48571553203517664 -0.3929521198483272 0.24285776601758832
-0.48571553203517664 0.39295211984832706 -0.24285776601758832
-0.48571553203517664 0.39295211984832706 0.24285776601758832
-0.6358098858659154 -0.15009435383073877 -0.15009435383073877
-0.6358098858659154 -0.15009435383073877 0.15009435383073877
-0.6358098858659154 0.15009435383073877 -0.15009435383073877
-0.6358098858659154 0.15009435383073877 0.15009435383073877
-0.3929521198483272 -0.5430464736790659 0.0
-0.3929521198483272 -0.24285776601758832 -0.48571553203517664
-0.3929521198483272 -0.24285776601758832 0.48571553203517664
-0.3929521198483272 0.24285776601758832 -0.48571553203517664
-0.3929521198483272 0.24285776601758832 0.48571553203517664
-0.3929521198483272 0.5430464736790659 0.0
0.24285776601758832 -0.48571553203517664 -0.3929521198483272
0.24285776601758832 0.48571553203517664 -0.3929521198483272
0.48571553203517664 -0.3929521198483272 -0.24285776601758832
0.48571553203517664 -0.3929521198483272 0.24285776601758832
0.48571553203517664 0.39295211984832706 -0.24285776601758832
0.48571553203517664 0.39295211984832706 0.24285776601758832
0.6358098858659154 -0.15009435383073877 -0.15009435383073877
0.6358098858659154 -0.15009435383073877 0.15009435383073877
0.6358098858659154 0.15009435383073877 -0.15009435383073877
0.6358098858659154 0.15009435383073877 0.15009435383073877
0.39295211984832706 -0.5430464736790659 0.0
0.39295211984832706 -0.24285776601758832 -0.48571553203517664
0.39295211984832706 -0.24285776601758832 0.48571553203517664
0.39295211984832706 0.24285776601758832 -0.48571553203517664
0.39295211984832706 0.24285776601758832 0.48571553203517664
0.39295211984832706 0.5430464736790659 0.0
0.5430464736790659 0.0 -0.3929521198483272
0.5430464736790659 0.0 0.39295211984832706
3 38 48 40
3 14 22 24
3 15 25 23
3 2 7 10
3 0 8 6
3 39 41 49
3 33 36 45
3 17 29 20
3 32 43 34
3 16 18 27
4 15 30 21 25
4 36 40 48 45
5 1 3 30 15 28
4 22 23 25 24
4 15 23 19 28
4 34 43 48 38
4 1 9 11 3
4 14 27 18 22
5 18 26 19 23 22
4 2 29 17 7
5 0 27 14 29 2
4 0 2 10 8
5 8 10 45 48 43
4 35 39 49 44
4 38 40 41 39
5 36 47 37 41 40
4 7 33 45 10
5 5 13 33 7 17
4 13 47 36 33
4 14 24 20 29
5 34 38 39 35 42
4 6 8 43 32
5 9 44 49 46 11
4 37 46 49 41
4 4 26 18 16
4 0 6 16 27
10 3 11 46 37 47 13 5 31 21 30
5 20 24 25 21 31
4 5 17 20 31
10 1 28 19 26 4 12 42 35 44 9
5 4 16 6 32 12
4 12 32 34 42